<svg id="Layer_1" data-name="Layer 1" xmlns="http://www.w3.org/2000/svg" viewBox="0 0 287.41 240.35"><defs><style>.cls-1{fill:#b02965;}.cls-2{fill:#1b4088;}.cls-3{font-size:32.26px;font-family:Gotham-Light, Gotham;font-weight:300;letter-spacing:-0.04em;}.cls-4{letter-spacing:-0.02em;}.cls-5{letter-spacing:-0.03em;}.cls-6{letter-spacing:-0.03em;}.cls-7{letter-spacing:-0.03em;}.cls-8{letter-spacing:-0.02em;}.cls-10,.cls-11,.cls-12,.cls-13,.cls-14,.cls-9{font-family:Gotham-Bold, Gotham;font-weight:700;}.cls-9{letter-spacing:-0.03em;}.cls-10{letter-spacing:0em;}.cls-11{letter-spacing:-0.1em;}.cls-12{letter-spacing:-0.03em;}.cls-13{letter-spacing:-0.01em;}.cls-14{letter-spacing:-0.02em;}</style></defs><path class="cls-1" d="M197.33,235a102.34,102.34,0,0,1-43,8.91Q119,243.88,98,222.39t-21-57.11q0-35.62,21.19-57.11T153.8,86.69a117.93,117.93,0,0,1,43,7.9l-5.9,18.54q-20.4-7-36.78-7-24.71,0-39.15,15.94t-14.44,43.25q0,25,14.94,42t38.94,17A114,114,0,0,0,193.45,217Z" transform="translate(-76.93 -71)"/><path class="cls-2" d="M325.59,233.24q-22.56,10.35-44.4,10.35-40.09,0-40.09-42.39V109.68H212.36V90.28H241.1V71h21.84V90.28h42.2l2.68,9.4-2.68,10h-42.2v85.63q0,13.65,6,21.19t16.37,7.55a86.92,86.92,0,0,0,36.36-8.19Z" transform="translate(-76.93 -71)"/><text class="cls-3" transform="translate(10.58 233.09)">C<tspan class="cls-4" x="22.4" y="0">O</tspan><tspan class="cls-5" x="49.09" y="0">D</tspan><tspan class="cls-6" x="73.39" y="0">I</tspan><tspan class="cls-7" x="81.36" y="0">G</tspan><tspan class="cls-8" x="105.69" y="0">O </tspan><tspan class="cls-9" x="141.43" y="0">T</tspan><tspan class="cls-10" x="161.21" y="0">R</tspan><tspan class="cls-11" x="184.42" y="0">A</tspan><tspan class="cls-12" x="206.68" y="0">V</tspan><tspan class="cls-13" x="229.93" y="0">E</tspan><tspan class="cls-14" x="251.13" y="0">L</tspan></text><g id="layer1"><path id="path1882" d="M352.19,96.68h-5.45L342.13,91h2.21v-1.9h-3.82l-4.88-5.81h1.86V81.59h-3.31l-6.14-7.15-2.94-.64,8.56,15.71,1.92,7.15-12.65.13-6,1.4-5.63-7.46H308.9l1.81,8.56-1.81,8.54h2.41l5.64-7.47,6,1.41,12.64.13-1.91,7.15-8.56,15.71,2.94-.64L334.2,117h3.31v-1.65h-1.95l5-5.89h3.82v-1.89h-2.22l4.62-5.83h5.44c2.22,0,9.13.08,12.15-2.42C360.9,96.89,356.37,96.81,352.19,96.68Z" transform="translate(-76.93 -71)"/></g></svg>